<svg id="clock" xmlns="http://www.w3.org/2000/svg" width="300" height="300" viewBox="0 0 300 300"><title>clock-face</title><path d="M150,2A148,148,0,1,0,298,150,148,148,0,0,0,150,2Zm84.2,92.6,25.6-14.8a5.9,5.9,0,1,1,5.9,10.3l-25.6,14.8a5.9,5.9,0,1,1-5.9-10.3ZM144.1,19.8a5.9,5.9,0,1,1,11.8,0V49.4a5.9,5.9,0,1,1-11.8,0ZM81.9,32.1A5.9,5.9,0,0,1,90,34.2l14.8,25.6a5.9,5.9,0,1,1-10.3,5.9L79.8,40.2A5.9,5.9,0,0,1,81.9,32.1ZM13.8,150a5.9,5.9,0,0,1,5.9-5.9H49.4a5.9,5.9,0,1,1,0,11.8H19.8A5.9,5.9,0,0,1,13.8,150Zm52,55.4L40.2,220.2A5.9,5.9,0,1,1,34.2,210l25.6-14.8a5.9,5.9,0,1,1,5.9,10.2ZM68,102.6a5.9,5.9,0,0,1-8.1,2.2L34.3,90a5.9,5.9,0,1,1,5.9-10.3L65.8,94.5A5.9,5.9,0,0,1,68,102.6Zm36.8,137.5L90,265.7a5.9,5.9,0,1,1-10.2-5.9l14.8-25.6a5.9,5.9,0,1,1,10.3,5.9Zm51.1,40.1a5.9,5.9,0,1,1-11.8,0V250.6a5.9,5.9,0,1,1,11.8,0ZM218,267.9a5.9,5.9,0,0,1-8.1-2.2l-14.8-25.6a5.9,5.9,0,1,1,10.3-5.9l14.8,25.6A5.9,5.9,0,0,1,218,267.9Zm2.3-227.7L205.5,65.8a5.9,5.9,0,1,1-10.3-5.9l14.8-25.6a5.9,5.9,0,1,1,10.2,5.9Zm47.6,177.9a5.9,5.9,0,0,1-8.1,2.2l-25.6-14.8a5.9,5.9,0,1,1,5.9-10.3L265.7,210A5.9,5.9,0,0,1,267.9,218.1ZM280.2,156H250.6a5.9,5.9,0,1,1,0-11.8h29.6a5.9,5.9,0,0,1,0,11.8Z" fill="#fff"/></svg>